<?xml version="1.0" encoding="UTF-8"?>
<svg width="70px" height="70px" viewBox="0 0 70 70" version="1.1" xmlns="http://www.w3.org/2000/svg" xmlns:xlink="http://www.w3.org/1999/xlink">
    <!-- Generator: Sketch 47 (45396) - http://www.bohemiancoding.com/sketch -->
    <title>Twitter</title>
    <desc>Created with Sketch.</desc>
    <defs></defs>
    <g id="Icons" stroke="none" stroke-width="1" fill="none" fill-rule="evenodd">
        <g id="Twitter" transform="translate(-1077.000000, -892.000000)" fill="#FFFFFF">
            <g id="Monogram">
                <g id="Twitter" transform="translate(1077.000000, 892.000000)">
                    <rect id="Rectangle" fill-opacity="0.104081748" x="0" y="0" width="70" height="70" rx="5"></rect>
                    <path d="M47.8023317,34.2277384 C47.7564955,34.2196629 47.7088258,34.2123215 47.6593227,34.203879 C47.4862452,34.1745135 47.2922664,34.1436797 47.0773863,34.1113776 C47.0077153,34.1007327 46.9453781,34.0915559 46.8713068,34.0805439 C46.5841888,34.0394322 46.2743361,33.9979534 45.9314813,33.9575759 C45.91058,33.9553735 45.8878452,33.9531711 45.8669439,33.9509686 C45.5475573,33.9142618 45.2036024,33.8808585 44.84498,33.8500248 C44.7577078,33.8423163 44.6715358,33.8357091 44.5824302,33.8287348 C44.2139071,33.7997364 43.8318165,33.7751428 43.4324916,33.7571564 C43.3994895,33.7556881 43.3690543,33.7534857 43.3360522,33.7520174 C42.8941912,33.733664 42.4365626,33.7252214 41.9671999,33.7259556 C41.8975288,33.7259556 41.8274911,33.7277909 41.7574534,33.728525 C41.3482278,33.7318287 40.9327685,33.7450431 40.5107087,33.7674343 C40.4271035,33.7722062 40.3453317,33.7755098 40.2613598,33.7806488 C39.7659621,33.8118496 39.2668975,33.8547967 38.7652662,33.9179325 C38.6647932,33.6723635 38.576421,33.4334018 38.4708144,33.1848963 C38.1745292,32.4889342 37.8540425,31.7988451 37.5218217,31.1190339 C38.086157,30.8874136 38.6068562,30.6495531 39.1040874,30.4021488 C39.1418564,30.3837954 39.1785253,30.365442 39.215561,30.3467215 C42.7409149,28.569375 44.6036982,26.5438901 45.1702336,25.8347135 C45.4302166,26.1544303 45.7246683,26.4473511 45.9549494,26.7876237 C46.4521805,27.5283683 46.8815741,28.3168318 47.2280958,29.136129 C47.5815845,29.9719444 47.8507347,30.8433654 48.0333461,31.7305703 C48.2042235,32.5784989 48.2907623,33.4491858 48.3032297,34.3195056 C48.1756217,34.2945449 48.0073112,34.2637111 47.8023317,34.2277384 M48.0333461,37.3034067 C47.8507347,38.1931812 47.5815845,39.0649692 47.2280958,39.9000504 C46.8815741,40.7193477 46.4521805,41.5081782 45.9549494,42.2489228 C45.4602851,42.9801236 44.8941164,43.6672761 44.2685439,44.2931282 C43.6719399,44.8918171 43.0144654,45.4325093 42.3206887,45.9111668 C42.0915076,44.6334008 41.3093587,40.7843188 39.6280868,36.1515453 C42.1105755,35.7532758 44.4104528,35.9397466 46.0359878,36.2073397 C46.0389213,36.2080738 46.0418549,36.2084409 46.0444217,36.208808 C46.677328,36.3134225 47.2035276,36.4297833 47.6013858,36.5288918 C47.6299876,36.5362332 47.6571226,36.5428405 47.6842576,36.5498148 C47.8588019,36.5942301 48.014645,36.636443 48.1290521,36.6694791 C48.0964168,36.8805436 48.0755155,37.0945447 48.0333461,37.3034067 M39.8774358,47.2583088 C39.0457837,47.6106947 38.172329,47.8815914 37.2831067,48.0643916 C36.3755499,48.24866 35.4393914,48.344832 34.5010326,48.344832 C33.5626739,48.344832 32.626882,48.24866 31.7163917,48.0643916 C30.8297362,47.8815914 29.9592151,47.6106947 29.1246295,47.2583088 C28.3061783,46.9114289 27.5181623,46.4815915 26.7785494,45.9838464 C26.5009653,45.7959073 26.2362154,45.5877793 25.9725656,45.3792843 C26.0418699,45.2508103 26.1522435,45.062137 26.2809516,44.8532749 C26.3025862,44.8180363 26.3212874,44.7861014 26.3447555,44.7490274 C26.4822642,44.5313557 26.6571751,44.2744077 26.8573876,43.9969037 C26.89589,43.9440459 26.9358592,43.8897197 26.9765618,43.8350265 C27.1932753,43.5432069 27.4426243,43.2275278 27.7304756,42.8923941 C27.7730116,42.8432069 27.8210479,42.7914503 27.8650507,42.7411619 C28.1807704,42.3821687 28.5280255,42.0081257 28.930284,41.6212354 C28.930284,41.6208683 28.9306507,41.6208683 28.9306507,41.6208683 C29.323742,41.2424205 29.7740368,40.8544289 30.2555003,40.4668044 C30.3284715,40.4080735 30.3974092,40.3493425 30.4725805,40.2906115 C30.9478103,39.919138 31.4729098,39.550234 32.035045,39.1883043 C32.1410183,39.1200295 32.2491917,39.0521218 32.3584652,38.9849483 C32.9418684,38.6241198 33.5674409,38.2732021 34.24545,37.9402708 C34.347023,37.8907166 34.4559298,37.8437318 34.559703,37.7945446 C35.2894153,37.4502342 36.0590968,37.1202395 36.9006495,36.8269516 C36.930718,36.8166737 36.9604199,36.8096994 36.9904884,36.7994215 C38.8404375,41.6127928 39.6812568,45.6971658 39.9537072,47.2216019 C39.9276722,47.2329811 39.9034707,47.2476638 39.8774358,47.2583088 M25.3044571,42.0664897 C25.0613419,42.3818016 24.849762,42.6684823 24.6763178,42.918089 C24.6444158,42.9632384 24.6238812,42.9940722 24.594546,43.0370192 C24.429169,43.2778162 24.2890936,43.490349 24.1955877,43.6390118 C23.7969961,43.1882515 23.3852037,42.7463008 23.0471158,42.2489228 C22.5498847,41.5081782 22.1208579,40.7193477 21.7739695,39.9000504 C21.4208474,39.0649692 21.1502305,38.1931812 20.9687191,37.3034067 C20.7850076,36.3945447 20.6889349,35.4577855 20.6889349,34.5184568 C20.6889349,34.369794 20.706536,34.2222324 20.711303,34.0743037 C20.8847472,34.0754049 21.1399632,34.0743037 21.4560496,34.0698989 L21.456783,34.0698989 C23.6781887,34.0368627 29.1814664,33.7637636 34.8827565,32.0568944 C35.289782,32.8545346 35.6645388,33.6646551 36.0216945,34.4725732 C35.8405498,34.5239628 35.6568383,34.5683781 35.4782605,34.626375 C34.7126125,34.8741463 33.9953677,35.1758768 33.3056245,35.5010996 C33.2073517,35.5477173 33.106512,35.5899302 33.0093393,35.6376491 C32.3650656,35.9551635 31.7592944,36.3013093 31.1835917,36.6658085 C31.0754183,36.7344503 30.9698116,36.8019909 30.8638383,36.871734 C30.3046367,37.240638 29.7758703,37.6216553 29.2848729,38.0133175 C29.2064013,38.0757192 29.1352635,38.1373867 29.0586254,38.2001555 C28.5584607,38.6105382 28.0839644,39.0249587 27.6578711,39.4357086 L27.6575044,39.4364427 C27.2215104,39.8567363 26.8350196,40.2671191 26.4767638,40.6646544 C26.4261606,40.721183 26.3740907,40.7762433 26.3249543,40.8320378 C25.9953003,41.2046124 25.7059822,41.555163 25.4467327,41.8844236 C25.3964962,41.9479265 25.3517601,42.0051892 25.3044571,42.0664897 M21.7739695,29.136129 C22.1208579,28.3168318 22.5498847,27.5283683 23.0471158,26.7876237 C23.544347,26.0538535 24.1083156,25.3663339 24.7360882,24.7404818 C25.361294,24.1146297 26.047737,23.5475087 26.7785494,23.052333 C27.3747867,22.6496587 28.0120932,22.3057154 28.6651674,21.9999472 C29.2991738,22.8728365 31.5664157,26.05679 33.7188837,29.8864174 C33.2828897,30.002044 32.850196,30.1099622 32.4226359,30.2109061 L32.4226359,30.2109061 C32.4215358,30.2109061 32.4204358,30.2112731 32.4193357,30.2116402 C28.9658529,31.0257985 25.8398239,31.3682735 23.6866225,31.5110633 C23.6847891,31.5114303 23.6825889,31.5114303 23.6807555,31.5114303 C22.8245353,31.5679589 22.1234247,31.5929196 21.616293,31.6035646 C21.6104259,31.6035646 21.6045589,31.6039316 21.5986919,31.6039316 C21.350443,31.6090706 21.147297,31.6109059 20.999521,31.6109059 C21.180299,30.7651797 21.4369818,29.9337692 21.7739695,29.136129 M31.7163917,20.9717879 C32.626882,20.785317 33.5626739,20.6917145 34.5010326,20.6917145 C35.4393914,20.6917145 36.3755499,20.785317 37.2831067,20.9717879 C38.172329,21.1549551 39.0428502,21.4243835 39.8774358,21.7778707 C40.695887,22.1251176 41.4864698,22.5545879 42.2235159,23.052333 C42.7181802,23.3878338 43.1585744,23.7982166 43.6081359,24.1953849 C43.0845031,24.8634498 41.3929639,26.767435 38.0102522,28.3539057 C38.001085,28.3583105 37.9915511,28.3627154 37.9820171,28.3671202 C37.5009204,28.5917662 36.9864548,28.8105391 36.4353203,29.0179329 C34.3275884,25.1453585 32.0449456,21.9757207 31.3684033,21.0617197 C31.4850106,21.0345566 31.599051,20.9963815 31.7163917,20.9717879 M49.7050841,28.0874139 C49.2903581,27.1091759 48.7784594,26.1643411 48.1840556,25.2797057 C47.5922185,24.4071835 46.9134761,23.5849497 46.1698295,22.8375979 C45.4232495,22.0917144 44.6018647,21.4137385 43.7302435,20.8212897 C42.8461549,20.2248032 41.9022958,19.7134765 40.9254347,19.2986889 C39.9265722,18.876927 38.8855403,18.5539066 37.8243406,18.3351337 C36.7367392,18.112323 35.6198026,18 34.5010326,18 C33.3826293,18 32.2653261,18.112323 31.1777247,18.3351337 C30.1165249,18.5539066 29.0740263,18.876927 28.0769973,19.2986889 C27.0997695,19.7134765 26.1559104,20.2248032 25.2721884,20.8212897 C24.4002005,21.4137385 23.5791825,22.0917144 22.8326024,22.8375979 C22.0885892,23.5849497 21.4102134,24.4071835 20.8183764,25.2797057 C20.2236058,26.1643411 19.7117071,27.1091759 19.2969812,28.0874139 C18.8760215,29.0854735 18.5533346,30.1290498 18.3358877,31.1913465 C18.112207,32.2804392 18,33.3985303 18,34.5184568 C18,35.6376491 18.112207,36.7561073 18.3358877,37.8452001 C18.5533346,38.9074968 18.8760215,39.951073 19.2969812,40.9465632 C19.7117071,41.9273706 20.2236058,42.8718383 20.8183764,43.7568408 C21.4102134,44.629363 22.0885892,45.4515968 22.8326024,46.1989486 C23.5791825,46.9433639 24.4002005,47.622808 25.2721884,48.2126873 C26.1559104,48.8106422 27.0997695,49.32307 28.0769973,49.7378576 C29.0740263,50.1596195 30.1165249,50.4826399 31.1777247,50.6999446 C32.2653261,50.9242235 33.3826293,51.0361795 34.5010326,51.0361795 C35.6198026,51.0361795 36.7367392,50.9242235 37.8243406,50.6999446 C38.8855403,50.4826399 39.9265722,50.1596195 40.9254347,49.7378576 C41.9022958,49.32307 42.8461549,48.8106422 43.7302435,48.2126873 C44.6018647,47.622808 45.4232495,46.9433639 46.1698295,46.1989486 C46.9134761,45.4515968 47.5922185,44.629363 48.1840556,43.7568408 C48.7784594,42.8718383 49.2903581,41.9273706 49.7050841,40.9465632 C50.1249437,39.951073 50.4487306,38.9074968 50.6661776,37.8452001 C50.8902249,36.7561073 51.0020653,35.6376491 51.0020653,34.5184568 C51.0020653,33.3985303 50.8902249,32.2804392 50.6661776,31.1913465 C50.4487306,30.1290498 50.1249437,29.0854735 49.7050841,28.0874139" id="Fill-30"></path>
                </g>
            </g>
        </g>
    </g>
</svg>