<?xml version="1.0" encoding="UTF-8"?>
<svg width="70px" height="70px" viewBox="0 0 70 70" version="1.1" xmlns="http://www.w3.org/2000/svg" xmlns:xlink="http://www.w3.org/1999/xlink">
    <!-- Generator: Sketch 47 (45396) - http://www.bohemiancoding.com/sketch -->
    <title>Medium</title>
    <desc>Created with Sketch.</desc>
    <defs></defs>
    <g id="Icons" stroke="none" stroke-width="1" fill="none" fill-rule="evenodd">
        <g id="Twitter" transform="translate(-992.000000, -892.000000)" fill="#FFFFFF">
            <g id="Monogram">
                <g id="Medium" transform="translate(992.000000, 892.000000)">
                    <rect id="Rectangle" fill-opacity="0.104081748" x="0" y="0" width="70" height="70" rx="5"></rect>
                    <path d="M20.5060691,26.1199294 C20.5532812,25.656055 20.3753954,25.1975666 20.0270775,24.8853615 L16.4789916,20.6349206 L16.4789916,20 L27.4957983,20 L36.0112045,38.5714285 L43.4976659,20 L54,20 L54,20.6349206 L50.9663866,23.5273369 C50.7048558,23.7255811 50.5751232,24.0514095 50.6293185,24.3738977 L50.6293185,45.6261024 C50.5751232,45.9485906 50.7048558,46.2744188 50.9663866,46.4726632 L53.9290383,49.3650794 L53.9290383,50 L39.0270776,50 L39.0270776,49.3650794 L42.0961719,46.4021164 C42.3977591,46.1022927 42.3977591,46.0141094 42.3977591,45.5555557 L42.3977591,28.3774251 L33.8646125,49.9294533 L32.7114846,49.9294533 L22.7768441,28.3774251 L22.7768441,42.8218694 C22.6940126,43.4291545 22.8968317,44.0405577 23.3267974,44.4797179 L27.318394,49.2945327 L27.318394,49.9294533 L16,49.9294533 L16,49.2945327 L19.9915966,44.4797179 C20.4184318,44.0398296 20.6094243,43.4243707 20.5060691,42.8218694 L20.5060691,26.1199294 Z" id="Shape" fill-rule="nonzero"></path>
                </g>
            </g>
        </g>
    </g>
</svg>