<?xml version="1.0" encoding="UTF-8"?>
<svg width="70px" height="70px" viewBox="0 0 70 70" version="1.1" xmlns="http://www.w3.org/2000/svg" xmlns:xlink="http://www.w3.org/1999/xlink">
    <!-- Generator: Sketch 47 (45396) - http://www.bohemiancoding.com/sketch -->
    <title>Phone</title>
    <desc>Created with Sketch.</desc>
    <defs></defs>
    <g id="Icons" stroke="none" stroke-width="1" fill="none" fill-rule="evenodd">
        <g id="Twitter" transform="translate(-1162.000000, -892.000000)" fill="#FFFFFF">
            <g id="Monogram">
                <g id="Phone" transform="translate(1162.000000, 892.000000)">
                    <rect id="Rectangle" fill-opacity="0.104081748" x="0" y="0" width="70" height="70" rx="5"></rect>
                    <g transform="translate(18.000000, 18.000000)" id="Path-4" fill-rule="nonzero">
                        <path d="M0.0141322008,4.19443058 C0.957035214,10.4114717 4.20215058,16.7098633 9.74947827,23.0896053 C15.3776488,29.5623212 22.1322794,33.1970001 30.0133698,33.9936419 L30.0133698,33.9936416 C30.5101719,34.0438596 30.9890927,33.7933783 31.230685,33.3569711 C32.022611,31.9264522 32.5762004,30.7815968 32.8914533,29.9224051 C33.2359763,28.9834399 33.6019892,27.5512949 33.989492,25.6259701 L33.9894909,25.6259699 C34.0332457,25.4085729 33.9378763,25.1867983 33.7498858,25.0687854 C32.1594596,24.0703802 30.9262167,23.3631058 30.0501574,22.9469622 C29.1634142,22.5257437 27.7312557,21.9698862 25.7536815,21.2793899 L25.753682,21.2793888 C25.5637516,21.2130722 25.3526206,21.2588653 25.207349,21.3978856 L21.5650942,24.8834049 L21.565093,24.8834037 C21.3179176,25.1199423 20.9568904,25.1941399 20.6362705,25.0742934 C17.8668822,24.0391061 15.5380351,22.5562793 13.6497291,20.6258125 C11.7600276,18.6939192 10.1654094,16.1796731 8.86587433,13.0830741 L8.86587388,13.0830743 C8.71955123,12.7344092 8.80982475,12.331476 9.0909797,12.078321 L12.3240498,9.16723013 L12.3240505,9.16723094 C12.5831178,8.93396403 12.6820511,8.57118124 12.5772008,8.23894334 C12.0145959,6.4562231 11.5464943,5.11300239 11.1728959,4.20928123 C10.799817,3.30681647 10.1858027,2.03185089 9.33085299,0.384384531 L9.33085262,0.384384725 C9.17566193,0.0853362117 8.8318274,-0.0641578405 8.5068906,0.0261385119 C6.65852298,0.539779514 5.26616583,0.970059065 4.3298191,1.31697717 C3.45365271,1.64159836 2.24965041,2.16262596 0.717812204,2.88006001 L0.717811828,2.88005921 C0.217717435,3.11427765 -0.0685832049,3.64904568 0.0141322008,4.19443058 Z"></path>
                    </g>
                </g>
            </g>
        </g>
    </g>
</svg>