<?xml version="1.0" encoding="UTF-8"?>
<svg width="34px" height="28px" viewBox="0 0 34 28" version="1.1" xmlns="http://www.w3.org/2000/svg" xmlns:xlink="http://www.w3.org/1999/xlink">
    <!-- Generator: Sketch 47 (45396) - http://www.bohemiancoding.com/sketch -->
    <title>Twitter</title>
    <desc>Created with Sketch.</desc>
    <defs></defs>
    <g id="Icons" stroke="none" stroke-width="1" fill="none" fill-rule="evenodd">
        <g id="Twitter" fill="#FFFFFF">
            <path d="M33.0321333,0.62145641 C32.0442444,1.26282393 29.7760667,2.19481709 28.6574667,2.19481709 L28.6574667,2.19673162 C27.3802,0.844307692 25.5819778,0 23.5876889,0 C19.7143333,0 16.5734889,3.18348034 16.5734889,7.10788376 C16.5734889,7.65314188 16.6358222,8.18499829 16.7510444,8.69502906 L16.7499111,8.69502906 C11.4957778,8.55526838 5.7494,5.88603077 2.29008889,1.31757949 C0.1632,5.04899829 2.00373333,9.19893333 4.41735556,10.7110291 C3.59115556,10.7742085 2.07022222,10.6145368 1.35433333,9.90654359 C1.30635556,12.3831795 2.48124444,15.6646838 6.76524444,16.8551385 C5.94017778,17.305053 4.47968889,17.1760137 3.84464444,17.0802872 C4.06753333,19.1709538 6.95602222,21.9041368 10.1146222,21.9041368 C8.98884444,23.2240137 4.7532,25.6179419 0,24.8563419 C3.22811111,26.8470701 6.9904,28 10.9725556,28 C22.2888889,28 31.0771333,18.7041915 30.6041556,7.23654017 C30.6022667,7.22390427 30.6022667,7.21126838 30.6011333,7.19748376 C30.6022667,7.168 30.6041556,7.13851624 30.6041556,7.10788376 C30.6041556,7.0722735 30.6011333,7.03857778 30.6,7.00411624 C31.6302,6.28999658 33.0124889,5.02678974 34,3.36421197 C33.4272889,3.68393846 31.7091556,4.32415726 30.1104,4.48306325 C31.1364444,3.92172308 32.6566222,2.08339145 33.0321333,0.62145641" id="Fill-1"></path>
        </g>
    </g>
</svg>